<svg version="1.1" viewBox="0.0 0.0 960.0 540.0" fill="none" stroke="none" stroke-linecap="square" stroke-miterlimit="10" xmlns:xlink="http://www.w3.org/1999/xlink" xmlns="http://www.w3.org/2000/svg"><clipPath id="gb6674e10e1_1_6.0"><path d="m0 0l960.0 0l0 540.0l-960.0 0l0 -540.0z" clip-rule="nonzero"/></clipPath><g clip-path="url(#gb6674e10e1_1_6.0)"><path fill="#000000" fill-opacity="0.0" d="m0 0l960.0 0l0 540.0l-960.0 0z" fill-rule="evenodd"/><path fill="#000000" fill-opacity="0.0" d="m426.65085 172.91089l0 0c31.737122 18.998108 51.52942 50.65567 53.230316 85.141205c1.7008667 34.485535 -14.89563 67.62329 -44.635345 89.12213l-73.89148 -84.30075z" fill-rule="evenodd"/><path fill="#000000" fill-opacity="0.0" d="m426.65085 172.91089l0 0c31.737122 18.998108 51.52942 50.65567 53.230316 85.141205c1.7008667 34.485535 -14.89563 67.62329 -44.635345 89.12213" fill-rule="evenodd"/><path stroke="#595959" stroke-width="3.0" stroke-linejoin="round" stroke-linecap="butt" d="m426.65085 172.91089l0 0c31.737122 18.998108 51.52942 50.65567 53.230316 85.141205c1.7008667 34.485535 -14.89563 67.62329 -44.635345 89.12213" fill-rule="evenodd"/></g></svg>