<svg version="1.1" viewBox="0.0 0.0 960.0 540.0" fill="none" stroke="none" stroke-linecap="square" stroke-miterlimit="10" xmlns:xlink="http://www.w3.org/1999/xlink" xmlns="http://www.w3.org/2000/svg"><clipPath id="gb6674e10e1_1_6.0"><path d="m0 0l960.0 0l0 540.0l-960.0 0l0 -540.0z" clip-rule="nonzero"/></clipPath><g clip-path="url(#gb6674e10e1_1_6.0)"><path fill="#000000" fill-opacity="0.0" d="m0 0l960.0 0l0 540.0l-960.0 0z" fill-rule="evenodd"/><path fill="#000000" fill-opacity="0.0" d="m535.532 356.62692l0 0c-33.945496 -19.36557 -54.827393 -52.988647 -55.515778 -89.388855c-0.6883545 -36.400223 18.909912 -70.65463 52.10312 -91.06738l66.525085 89.21716z" fill-rule="evenodd"/><path fill="#000000" fill-opacity="0.0" d="m535.532 356.62692l0 0c-33.945496 -19.36557 -54.827393 -52.988647 -55.515778 -89.388855c-0.6883545 -36.400223 18.909912 -70.65463 52.10312 -91.06738" fill-rule="evenodd"/><path stroke="#595959" stroke-width="3.0" stroke-linejoin="round" stroke-linecap="butt" d="m535.532 356.62692l0 0c-33.945496 -19.36557 -54.827393 -52.988647 -55.515778 -89.388855c-0.6883545 -36.400223 18.909912 -70.65463 52.10312 -91.06738" fill-rule="evenodd"/></g></svg>