<svg version="1.1" viewBox="0.0 0.0 960.0 540.0" fill="none" stroke="none" stroke-linecap="square" stroke-miterlimit="10" xmlns:xlink="http://www.w3.org/1999/xlink" xmlns="http://www.w3.org/2000/svg"><clipPath id="p.0"><path d="m0 0l960.0 0l0 540.0l-960.0 0l0 -540.0z" clip-rule="nonzero"/></clipPath><g clip-path="url(#p.0)"><path fill="#000000" fill-opacity="0.0" d="m0 0l960.0 0l0 540.0l-960.0 0z" fill-rule="evenodd"/><path fill="#000000" fill-opacity="0.0" d="m493.23007 85.77116l-107.983826 390.91006" fill-rule="evenodd"/><path stroke="#595959" stroke-width="8.0" stroke-linejoin="round" stroke-linecap="butt" d="m493.23007 85.77116l-107.983826 390.91006" fill-rule="evenodd"/><path fill="#000000" fill-opacity="0.0" d="m494.3338 88.01789l80.41876 385.2985" fill-rule="evenodd"/><path stroke="#595959" stroke-width="8.0" stroke-linejoin="round" stroke-linecap="butt" d="m494.3338 88.01789l80.41876 385.2985" fill-rule="evenodd"/><path fill="#000000" fill-opacity="0.0" d="m463.48175 187.98862l57.28235 35.947693" fill-rule="evenodd"/><path stroke="#595959" stroke-width="3.0" stroke-linejoin="round" stroke-linecap="butt" d="m463.48175 187.98862l57.28235 35.947693" fill-rule="evenodd"/><path fill="#000000" fill-opacity="0.0" d="m520.7779 225.0579l-79.34268 46.073807" fill-rule="evenodd"/><path stroke="#595959" stroke-width="3.0" stroke-linejoin="round" stroke-linecap="butt" d="m520.7779 225.0579l-79.34268 46.073807" fill-rule="evenodd"/><path fill="#000000" fill-opacity="0.0" d="m443.6461 269.989l98.05051 43.79544" fill-rule="evenodd"/><path stroke="#595959" stroke-width="3.0" stroke-linejoin="round" stroke-linecap="butt" d="m443.6461 269.989l98.05051 43.79544" fill-rule="evenodd"/><path fill="#000000" fill-opacity="0.0" d="m540.6136 318.28845l-132.2378 67.38083" fill-rule="evenodd"/><path stroke="#595959" stroke-width="3.0" stroke-linejoin="round" stroke-linecap="butt" d="m540.6136 318.28845l-132.2378 67.38083" fill-rule="evenodd"/><path fill="#000000" fill-opacity="0.0" d="m409.4864 385.68335l157.56781 50.546143" fill-rule="evenodd"/><path stroke="#595959" stroke-width="3.0" stroke-linejoin="round" stroke-linecap="butt" d="m409.4864 385.68335l157.56781 50.546143" fill-rule="evenodd"/><path fill="#000000" fill-opacity="0.0" d="m467.88623 189.11374l39.650635 -22.488403" fill-rule="evenodd"/><path stroke="#595959" stroke-width="3.0" stroke-linejoin="round" stroke-linecap="butt" d="m467.88623 189.11374l39.650635 -22.488403" fill-rule="evenodd"/><path fill="#000000" fill-opacity="0.0" d="m444.7498 136.32085l36.33954 -1.1391907" fill-rule="evenodd"/><path stroke="#595959" stroke-width="2.0" stroke-linejoin="round" stroke-linecap="butt" d="m444.7498 136.32085l36.33954 -1.1391907" fill-rule="evenodd"/><path fill="#000000" fill-opacity="0.0" d="m504.27405 136.32085l36.33954 -1.1391907" fill-rule="evenodd"/><path stroke="#595959" stroke-width="2.0" stroke-linejoin="round" stroke-linecap="butt" d="m504.27405 136.32085l36.33954 -1.1391907" fill-rule="evenodd"/><path fill="#000000" fill-opacity="0.0" d="m443.6461 107.11334l2.1936035 28.09996" fill-rule="evenodd"/><path stroke="#595959" stroke-width="2.0" stroke-linejoin="round" stroke-linecap="butt" d="m443.6461 107.11334l2.1936035 28.09996" fill-rule="evenodd"/><path fill="#000000" fill-opacity="0.0" d="m547.2358 108.23143l-6.6221924 25.86377" fill-rule="evenodd"/><path stroke="#595959" stroke-width="2.0" stroke-linejoin="round" stroke-linecap="butt" d="m547.2358 108.23143l-6.6221924 25.86377" fill-rule="evenodd"/><path fill="#eeeeee" d="m434.83023 63.317917l19.825317 0l0 43.795425l-19.825317 0z" fill-rule="evenodd"/><path stroke="#595959" stroke-width="1.0" stroke-linejoin="round" stroke-linecap="butt" d="m434.83023 63.317917l19.825317 0l0 43.795425l-19.825317 0z" fill-rule="evenodd"/><path fill="#eeeeee" d="m534.012 63.34956l19.825317 0l0 43.79543l-19.825317 0z" fill-rule="evenodd"/><path stroke="#595959" stroke-width="1.0" stroke-linejoin="round" stroke-linecap="butt" d="m534.012 63.34956l19.825317 0l0 43.79543l-19.825317 0z" fill-rule="evenodd"/><path fill="#666666" d="m313.44882 393.65878l64.409454 0l0 83.02362l-64.409454 0z" fill-rule="evenodd"/><path stroke="#595959" stroke-width="1.0" stroke-linejoin="round" stroke-linecap="butt" d="m313.44882 393.65878l64.409454 0l0 83.02362l-64.409454 0z" fill-rule="evenodd"/><path fill="#000000" fill-opacity="0.0" d="m377.85828 435.1706l6.204712 0l0 38.897644" fill-rule="evenodd"/><path stroke="#595959" stroke-width="1.0" stroke-linejoin="round" stroke-linecap="butt" d="m377.85828 435.1706l6.204712 0l0 38.897644" fill-rule="evenodd"/></g></svg>